<?xml version="1.0" encoding="UTF-8" standalone="no"?>
<svg width="21px" height="39px" viewBox="0 0 21 39" version="1.1" xmlns="http://www.w3.org/2000/svg" xmlns:xlink="http://www.w3.org/1999/xlink" xmlns:sketch="http://www.bohemiancoding.com/sketch/ns">
    <!-- Generator: Sketch 3.3.2 (12043) - http://www.bohemiancoding.com/sketch -->
    <title>flag</title>
    <desc>Created with Sketch.</desc>
    <defs></defs>
    <g id="Page-1" stroke="none" stroke-width="1" fill="none" fill-rule="evenodd" sketch:type="MSPage">
        <g id="flag" sketch:type="MSLayerGroup" fill="#FFFFFF">
            <rect id="Rectangle-path" sketch:type="MSShapeGroup" x="0" y="17" width="2" height="22"></rect>
            <path d="M1.908,17.629 C0.855,17.629 0,16.773 0,15.72 L0,2.405 C0,1.352 0.855,0.496 1.908,0.496 C2.179,0.496 2.442,0.553 2.691,0.665 L19.335,8.154 C20.052,8.477 20.492,9.192 20.458,9.977 C20.424,10.762 19.923,11.437 19.182,11.696 L2.539,17.521 C2.335,17.593 2.122,17.629 1.908,17.629 L1.908,17.629 Z M2,2.547 L2,15.591 L18.306,9.884 L2,2.547 L2,2.547 Z" id="Shape" sketch:type="MSShapeGroup"></path>
            <rect id="Rectangle-path" sketch:type="MSShapeGroup" x="4" y="3" width="2" height="12"></rect>
            <rect id="Rectangle-path" sketch:type="MSShapeGroup" x="8" y="4" width="2" height="10"></rect>
            <rect id="Rectangle-path" sketch:type="MSShapeGroup" x="12" y="7" width="2" height="5"></rect>
        </g>
    </g>
</svg>