<?xml version="1.0" encoding="UTF-8" standalone="no"?>
<svg width="16px" height="21px" viewBox="0 0 16 21" version="1.1" xmlns="http://www.w3.org/2000/svg" xmlns:xlink="http://www.w3.org/1999/xlink" xmlns:sketch="http://www.bohemiancoding.com/sketch/ns">
    <!-- Generator: Sketch 3.3.2 (12043) - http://www.bohemiancoding.com/sketch -->
    <title>humidity</title>
    <desc>Created with Sketch.</desc>
    <defs></defs>
    <g id="Page-1" stroke="none" stroke-width="1" fill="none" fill-rule="evenodd" sketch:type="MSPage">
        <g id="humidity" sketch:type="MSLayerGroup" fill="#FFFFFF">
            <path d="M10.438,9.413 C10.438,12.09 8.27,14.258 5.592,14.258 C2.914,14.258 0.747,12.09 0.747,9.413 L5.527,0.691 L10.438,9.413 L10.438,9.413 Z" id="Shape" sketch:type="MSShapeGroup"></path>
            <path d="M15.653,17.341 C15.637,18.895 14.368,20.141 12.813,20.126 C11.262,20.112 10.014,18.842 10.03,17.288 L12.852,12.253 L15.653,17.341 L15.653,17.341 Z" id="Shape" sketch:type="MSShapeGroup"></path>
            <path d="M14.634,4.912 C14.626,5.838 13.868,6.581 12.943,6.572 C12.018,6.563 11.273,5.806 11.283,4.881 L12.967,1.879 L14.634,4.912 L14.634,4.912 Z" id="Shape" sketch:type="MSShapeGroup"></path>
        </g>
    </g>
</svg>